<svg xmlns="http://www.w3.org/2000/svg" xmlns:xlink="http://www.w3.org/1999/xlink" viewBox="0 0 193.22 192.52"><defs><style>.cls-1{fill:url(#Gradient_bez_nazwy_55);}.cls-2{fill:url(#Gradient_bez_nazwy_55-2);}.cls-3{fill:url(#Gradient_bez_nazwy_55-3);}.cls-4{fill:url(#Gradient_bez_nazwy_55-4);}.cls-5{fill:url(#Gradient_bez_nazwy_55-5);}.cls-6{fill:url(#Gradient_bez_nazwy_55-6);}.cls-7{fill:url(#Gradient_bez_nazwy_55-7);}.cls-8{fill:url(#Gradient_bez_nazwy_55-8);}.cls-9{fill:url(#Gradient_bez_nazwy_55-9);}.cls-10{fill:url(#Gradient_bez_nazwy_55-10);}.cls-11{fill:url(#Gradient_bez_nazwy_55-11);}.cls-12{fill:url(#Gradient_bez_nazwy_5);}.cls-13{fill:url(#Gradient_bez_nazwy_5-2);}</style><linearGradient id="Gradient_bez_nazwy_55" x1="96.61" y1="-6.81" x2="96.61" y2="180.7" gradientUnits="userSpaceOnUse"><stop offset="0" stop-color="#0ba2d6"/><stop offset="1" stop-color="#5664a1"/></linearGradient><linearGradient id="Gradient_bez_nazwy_55-2" x1="46.6" y1="150.18" x2="105.26" y2="180.76" xlink:href="#Gradient_bez_nazwy_55"/><linearGradient id="Gradient_bez_nazwy_55-3" x1="49.91" y1="86.59" x2="57.88" y2="86.59" xlink:href="#Gradient_bez_nazwy_55"/><linearGradient id="Gradient_bez_nazwy_55-4" x1="22.8" y1="86.66" x2="53.43" y2="86.66" xlink:href="#Gradient_bez_nazwy_55"/><linearGradient id="Gradient_bez_nazwy_55-5" x1="17.1" y1="77.06" x2="23.23" y2="-0.56" xlink:href="#Gradient_bez_nazwy_55"/><linearGradient id="Gradient_bez_nazwy_55-6" x1="96.11" y1="8.42" x2="96.11" y2="44.51" xlink:href="#Gradient_bez_nazwy_55"/><linearGradient id="Gradient_bez_nazwy_55-7" x1="165.7" y1="92.02" x2="138" y2="86.17" xlink:href="#Gradient_bez_nazwy_55"/><linearGradient id="Gradient_bez_nazwy_55-8" x1="98.27" y1="-0.8" x2="98.27" y2="21.26" xlink:href="#Gradient_bez_nazwy_55"/><linearGradient id="Gradient_bez_nazwy_55-9" x1="139.54" y1="69.17" x2="139.54" y2="185.2" xlink:href="#Gradient_bez_nazwy_55"/><linearGradient id="Gradient_bez_nazwy_55-10" x1="26.72" y1="19.42" x2="26.72" y2="107.38" xlink:href="#Gradient_bez_nazwy_55"/><linearGradient id="Gradient_bez_nazwy_55-11" x1="62.94" y1="123.06" x2="62.94" y2="188.4" xlink:href="#Gradient_bez_nazwy_55"/><linearGradient id="Gradient_bez_nazwy_5" x1="96.61" y1="48.91" x2="96.61" y2="117.39" gradientUnits="userSpaceOnUse"><stop offset="0" stop-color="#eeae3e"/><stop offset="1" stop-color="#d44423"/></linearGradient><linearGradient id="Gradient_bez_nazwy_5-2" x1="96.61" y1="38.63" x2="96.61" y2="140.13" xlink:href="#Gradient_bez_nazwy_5"/></defs><g id="Warstwa_2" data-name="Warstwa 2"><g id="Warstwa_3" data-name="Warstwa 3"><path class="cls-1" d="M190,20.62A247.91,247.91,0,0,0,159.11,9.73C142.5,5.07,109.2-3.92,66.52,1.9c-5,.68-10.87,1.67-17.39,3.14l-.17,0c-1.72.38-3.49.81-5.31,1.27l-.15,0q-1.8.45-3.66,1c-3.9,1.06-8,2.3-12.21,3.73-2.06.7-4.17,1.45-6.3,2.25l-2.18.83L17,15l-.06,0Q12.5,16.81,8,18.86h0L5.65,19.92Q4.48,20.46,3.31,21c-1.1.52-2.19,1.06-3.3,1.61H0A202.93,202.93,0,0,0,5,64.32c.08.37.17.74.25,1.1a203,203,0,0,0,17.47,47.51c1-.58,2.07-1.17,3.15-1.75q2.87-1.56,6.05-3.08c.73-.35,1.47-.7,2.23-1s1.51-.69,2.29-1,1.46-.62,2.18-.92,1.34-.54,2-.79l1-.38.84-.32c3.83-1.48,7.51-2.7,11-3.7l-.22-.46a111.39,111.39,0,0,1-8.09-22.87,2.25,2.25,0,0,1,0-.22q-.21-.89-.39-1.77c-2.1.67-4.13,1.37-6.08,2.08a83.66,83.66,0,0,1-5-11.45c-.76-2.14-1.48-4.42-2.11-6.84a84.79,84.79,0,0,1-2.77-21.2l2.26-.91a278.16,278.16,0,0,1,92.59-19.65q3.83-.14,7.56-.18a285.5,285.5,0,0,1,61.19,6l1,.21C192.25,22,191.18,21.34,190,20.62Zm-18.16,59c-2.13-.69-4.34-1.38-6.64-2.05q-2.07-.61-4.23-1.2L159.51,76q-1.47-.41-3-.78l-2.76-.69-.22-.05-3.11-.72-1.59-.35c-.05.31-.11.61-.18.92a108.38,108.38,0,0,1-8.71,25.47l-.38.77-.16.31q2.55.84,4.83,1.7a144.88,144.88,0,0,1-16.85,31.07,145.12,145.12,0,0,1-30,31l-.3.23a190.06,190.06,0,0,1-35.56-16.27,189.38,189.38,0,0,1-32.19-23.86l-.15-.13c.17.28.34.56.52.84A208.38,208.38,0,0,0,45,147a211.08,211.08,0,0,0,51.2,45.56A202.29,202.29,0,0,0,139.61,157a204.44,204.44,0,0,0,43.32-73.41C179.55,82.26,175.85,80.93,171.83,79.62ZM57.93,97.87l.33.73h0l.46.88c.06.11.1.21.16.3l.2.37C58.7,99.44,58.32,98.68,57.93,97.87Zm1.15,2.29a.54.54,0,0,0,.05.11c.1.2.21.39.32.59C59.33,100.63,59.2,100.4,59.08,100.16Zm24.58,30.59a99.81,99.81,0,0,0,11.4,8.41A113.12,113.12,0,0,1,83.66,130.75Zm13-92.13h0Z"/><path class="cls-2" d="M97.41,164.63q-.33,5.2-.59,10.55-.45,8.83-.67,17.34a345,345,0,0,1-46-42.36c-7.39-8.18-14-16.23-19.8-24,0,0,0,0,0,0l-1.16-1.55.15.13a189.38,189.38,0,0,0,32.19,23.86,190.06,190.06,0,0,0,35.56,16.27Z"/><path class="cls-3" d="M57.88,97.78a106.76,106.76,0,0,1-8-22.37c.84,3.24,1.87,6.69,3.12,10.28C54.56,90.12,56.22,94.15,57.88,97.78Z"/><path class="cls-4" d="M53.43,100.07c-2.82.79-6.69,1.94-11,3.55l-.84.32-1,.38c-.65.25-1.32.51-2,.79s-1.45.6-2.18.92-1.54.68-2.29,1-1.5.69-2.23,1a15.46,15.46,0,0,1-6.8-5.31,13.39,13.39,0,0,1-2.25-8.48c0-.62.08-1.26.16-1.91.6-4.79,2.68-10.24,5-16.41a52.12,52.12,0,0,1,5.48-10.76,83.66,83.66,0,0,0,5,11.45c1.95-.71,4-1.41,6.08-2.08q.18.89.39,1.77a2.25,2.25,0,0,0,0,.22,111.39,111.39,0,0,0,8.09,22.87l.22.46,0,.06Z"/><path class="cls-5" d="M38.53,76.68a84.3,84.3,0,0,1-4.18,10.84,84.42,84.42,0,0,1-7.11,12.34c-1.4-1.69-2.89-3.54-4.42-5.55A162.29,162.29,0,0,1,5.2,65.42c-.08-.36-.17-.73-.25-1.1A202.93,202.93,0,0,1,0,22.65s0,0,0,0c1.11-.55,2.2-1.09,3.3-1.61q1.17-.57,2.34-1.11l.35.23c1.69,1.11,3.48,2.24,5.37,3.37,8.21,4.91,11.43,5.74,14.81,8.17a22.19,22.19,0,0,1,4.69,4.59l-2.26.91a84.79,84.79,0,0,0,2.77,21.2c.63,2.42,1.35,4.7,2.11,6.84A83.66,83.66,0,0,0,38.53,76.68Z"/><path class="cls-6" d="M192.21,22.44a285.5,285.5,0,0,0-61.19-6q-3.74,0-7.56.18a277,277,0,0,0-92.7,19.59l-2.26.9L0,22.65H0C1.11,22.08,2.2,21.54,3.3,21c.77-.38,1.55-.74,2.33-1.1l2.29-1.05H8Q12.5,16.79,16.89,15L17,15l2.2-.86,2.18-.83q3.2-1.2,6.3-2.25c4.23-1.43,8.31-2.67,12.21-3.73q1.86-.51,3.66-1l.15,0Q46.37,5.66,49,5.08l.17,0C55.55,3.61,61.33,2.63,66.28,2c42.52-5.8,75.7,3.16,92.25,7.8A248.36,248.36,0,0,1,189.3,20.61c.87.53,1.67,1,2.42,1.52Z"/><path class="cls-7" d="M171.83,79.62a22.87,22.87,0,0,1-2.12,8.88q-5.72,2.94-11.62,6.17-7.17,3.93-13.86,7.89l-4.83-1.7.16-.31.38-.77a108.38,108.38,0,0,0,8.71-25.47c.07-.31.13-.61.18-.92l1.59.35,3.11.72.22.05,2.76.69q1.53.38,3,.78l1.45.39q2.16.59,4.23,1.2C167.49,78.24,169.7,78.93,171.83,79.62Z"/><path class="cls-8" d="M193.22,22.65A290.37,290.37,0,0,0,6,20.15L3.31,21q1.17-.57,2.34-1.11a211.11,211.11,0,0,1,60.87-18c42.68-5.82,76,3.17,92.59,7.83A247.91,247.91,0,0,1,190,20.62C191.18,21.34,192.25,22,193.22,22.65Z"/><path class="cls-9" d="M182.93,83.55A204.44,204.44,0,0,1,139.61,157a202.29,202.29,0,0,1-43.46,35.56A302.46,302.46,0,0,0,150.56,126,300.33,300.33,0,0,0,169.71,88.5a74.12,74.12,0,0,0-6.13-5.24,77.23,77.23,0,0,0-14.93-9c.07-.31.13-.61.18-.92l1.59.35,3.11.72.22.05,2.76.69q1.53.38,3,.78l1.45.39q2.16.59,4.23,1.2c2.3.67,4.51,1.36,6.64,2.05C175.85,80.93,179.55,82.26,182.93,83.55Z"/><path class="cls-10" d="M53.43,100.07c-2.82.79-6.69,1.94-11,3.55l-.84.32-1,.38c-.65.25-1.32.51-2,.79s-1.45.6-2.18.92-1.54.68-2.29,1-1.5.69-2.23,1q-3.18,1.52-6.05,3.08c-1.08.58-2.13,1.17-3.15,1.75A203,203,0,0,1,5.2,65.42c-.08-.36-.17-.73-.25-1.1A202.93,202.93,0,0,1,0,22.65s0,0,0,0v0A221.43,221.43,0,0,0,13.84,73.05,196.91,196.91,0,0,0,23,92.4c1.53,2.84,3,5.33,4.26,7.46a74.58,74.58,0,0,0,12.64.89,85,85,0,0,0,13.26-1.29l.22.46,0,.06Z"/><path class="cls-11" d="M96.15,192.52A211.08,211.08,0,0,1,45,147a208.38,208.38,0,0,1-15.22-21.52q16,17.94,34.4,36.46Q80.35,178.18,96.15,192.52Z"/><path class="cls-12" d="M96.94,38.63a112,112,0,0,1,49.17,14.61A91.79,91.79,0,0,0,96.94,38.63Zm-25,4.14A112.25,112.25,0,0,1,96.3,38.63,91.83,91.83,0,0,0,47.11,53.24,111.63,111.63,0,0,1,71.91,42.77Zm1.37,77.85c-1.33-1.49-2.67-3.08-4-4.76-.68-.86-1.37-1.75-2-2.66-.43-.58-.86-1.17-1.29-1.78q-1.29-1.8-2.51-3.73c-.21-.31-.41-.63-.61-.94A100,100,0,0,0,76.6,124.18q-1.59-1.64-3.19-3.42A.43.43,0,0,0,73.28,120.62Z"/><path class="cls-13" d="M121.3,42.77a111.83,111.83,0,0,0-24.36-4.14H96.3A111.9,111.9,0,0,0,47.11,53.24c0,.3,0,.61,0,.92,0,1,0,2,.11,3.05,0,.7.08,1.42.14,2.16.12,1.57.28,3.26.5,5.05h0c.08.67.18,1.35.28,2,0,.4.11.81.17,1.22q.24,1.52.54,3.12c.14.77.3,1.55.47,2.34s.33,1.33.51,2c0,0,0,.06,0,.09s0,.11,0,.16a106.76,106.76,0,0,0,8,22.37l0,.09c.39.81.77,1.57,1.15,2.29.12.24.25.47.37.7q.57,1.06,1.08,2c.19.33.37.66.56,1l.1.17q.3.53.6,1l.27.46c.07.11.13.22.2.32.2.32.39.64.6,1s.4.63.61.94q1.22,1.94,2.51,3.73c.43.61.86,1.2,1.29,1.78.66.91,1.35,1.8,2,2.66,1.31,1.68,2.65,3.27,4,4.76a.43.43,0,0,1,.13.14q1.61,1.78,3.19,3.42a.52.52,0,0,0,.1.11l1.16,1.16.33.32c.41.4.81.79,1.21,1.16l.78.73.37.34,1.09,1c.65.58,1.3,1.14,1.94,1.69a.27.27,0,0,1,.08.07,113.12,113.12,0,0,0,11.4,8.41l.7.44.23.15.62.38,1.43-.9.75-.48,1.55-1,1.77-1.22,1.5-1.08.86-.63,1.74-1.33Q108,132,110,130.41c.57-.48,1.14-1,1.72-1.5,1.67-1.5,3.37-3.12,5.08-4.87.39-.4.78-.8,1.17-1.22,2-2.13,4-4.43,6-6.94.24-.3.48-.6.71-.91l.22-.28c.47-.61,1-1.31,1.57-2.1.33-.45.65-.9,1-1.37.06-.09.13-.18.19-.28l.87-1.27a101.58,101.58,0,0,0,6.11-10.32h0c.31-.59.6-1.18.89-1.76s.49-1,.73-1.52A101,101,0,0,0,141.36,83a105.13,105.13,0,0,0,2.73-10.57h0v0a103.87,103.87,0,0,0,1.82-13.3c0-.37,0-.74.07-1.1s0-.55.05-.81q.06-1.32.09-2.58c0-.46,0-.91,0-1.35A111.73,111.73,0,0,0,121.3,42.77Zm6.8,23c0,1.08-.13,2.14-.23,3.17,0,.38-.07.76-.12,1.16s-.09.75-.14,1.14-.1.73-.16,1.11l-.18,1.1c-.07.44-.15.87-.23,1.3,0,.19-.07.38-.11.57s-.05.25-.07.37c-.14.67-.28,1.32-.43,2l0,.07A45.28,45.28,0,0,0,118.76,72a44.61,44.61,0,0,0-7.64-3.65,40,40,0,0,0-28.59.35A43,43,0,0,0,78,70.83c.06.43.12.89.2,1.37A46.79,46.79,0,0,0,83,87c.26.48.51,1,.78,1.41a46.74,46.74,0,0,0,4.51,6.54,47.67,47.67,0,0,0,9,8.41A49.5,49.5,0,0,0,104,96.09c.24-.31.47-.64.7-1,1-1.41,1.9-2.78,2.66-4.08l10.87,4.23,1,.39-.75,1.26a66.42,66.42,0,0,1-21.74,21.8,0,0,0,0,0,0,0,.75.75,0,0,0-.15.09l-.4-.25a67.31,67.31,0,0,1-14.4-12.12l-.08-.08c-.85-1-1.7-2-2.54-3-.44-.56-.87-1.12-1.3-1.7-.27-.38-.55-.75-.82-1.14-.53-.77-1.08-1.55-1.6-2.38-.37-.57-.73-1.16-1.09-1.76-.15-.23-.29-.46-.43-.7-.51-.89-1-1.82-1.51-2.77-.2-.38-.39-.76-.58-1.14-.85-1.7-1.58-3.39-2.24-5-.13-.32-.25-.65-.37-1S69,85,68.84,84.64s-.29-.85-.42-1.25-.26-.78-.37-1.17c-.37-1.15-.69-2.27-1-3.38-.18-.73-.35-1.44-.51-2.16s-.29-1.39-.41-2.06c-.06-.29-.11-.58-.16-.85s-.13-.76-.19-1.14-.08-.52-.11-.78c-.24-1.63-.39-3.15-.5-4.53,0-.47-.06-.93-.08-1.38C65.07,65,65,64.17,65,63.4a58.54,58.54,0,0,1,31.42-9.31h.37a58.54,58.54,0,0,1,31.36,9.31C128.17,64.18,128.14,65,128.1,65.78Z"/></g></g></svg>